<mxfile host="app.diagrams.net" modified="2024-01-29T02:55:13.674Z" agent="Mozilla/5.0 (Windows NT 10.0; Win64; x64) AppleWebKit/537.36 (KHTML, like Gecko) Chrome/116.0.0.0 Safari/537.36" etag="tJTdw-vAK0C2UAVZjqVo" version="23.0.2" type="github">
  <diagram id="prtHgNgQTEPvFCAcTncT" name="Page-1">
    <mxGraphModel dx="1614" dy="1304" grid="1" gridSize="10" guides="1" tooltips="1" connect="1" arrows="1" fold="1" page="1" pageScale="1" pageWidth="827" pageHeight="1169" math="0" shadow="0">
      <root>
        <mxCell id="0" />
        <mxCell id="1" parent="0" />
        <mxCell id="lgjW_zysNGbxuHAjg5_Z-1" value="Pool" style="swimlane;childLayout=stackLayout;resizeParent=1;resizeParentMax=0;startSize=20;html=1;" vertex="1" parent="1">
          <mxGeometry x="830" y="40" width="600" height="1510" as="geometry" />
        </mxCell>
        <mxCell id="lgjW_zysNGbxuHAjg5_Z-2" value="Web" style="swimlane;startSize=20;html=1;" vertex="1" parent="lgjW_zysNGbxuHAjg5_Z-1">
          <mxGeometry y="20" width="200" height="1490" as="geometry" />
        </mxCell>
        <mxCell id="lgjW_zysNGbxuHAjg5_Z-8" value="" style="edgeStyle=orthogonalEdgeStyle;rounded=0;orthogonalLoop=1;jettySize=auto;html=1;" edge="1" parent="lgjW_zysNGbxuHAjg5_Z-2" source="lgjW_zysNGbxuHAjg5_Z-5" target="lgjW_zysNGbxuHAjg5_Z-7">
          <mxGeometry relative="1" as="geometry" />
        </mxCell>
        <mxCell id="lgjW_zysNGbxuHAjg5_Z-5" value="" style="ellipse;whiteSpace=wrap;html=1;" vertex="1" parent="lgjW_zysNGbxuHAjg5_Z-2">
          <mxGeometry x="79.99999999999955" y="30" width="40" height="40" as="geometry" />
        </mxCell>
        <mxCell id="lgjW_zysNGbxuHAjg5_Z-7" value="查询白名单列表" style="whiteSpace=wrap;html=1;" vertex="1" parent="lgjW_zysNGbxuHAjg5_Z-2">
          <mxGeometry x="39.999999999999545" y="100" width="120" height="60" as="geometry" />
        </mxCell>
        <mxCell id="lgjW_zysNGbxuHAjg5_Z-18" value="" style="edgeStyle=orthogonalEdgeStyle;rounded=0;orthogonalLoop=1;jettySize=auto;html=1;" edge="1" parent="lgjW_zysNGbxuHAjg5_Z-2" source="lgjW_zysNGbxuHAjg5_Z-11" target="lgjW_zysNGbxuHAjg5_Z-16">
          <mxGeometry relative="1" as="geometry" />
        </mxCell>
        <mxCell id="lgjW_zysNGbxuHAjg5_Z-11" value="页面展示" style="whiteSpace=wrap;html=1;" vertex="1" parent="lgjW_zysNGbxuHAjg5_Z-2">
          <mxGeometry x="39.999999999999545" y="200" width="120" height="60" as="geometry" />
        </mxCell>
        <mxCell id="lgjW_zysNGbxuHAjg5_Z-16" value="" style="ellipse;whiteSpace=wrap;html=1;" vertex="1" parent="lgjW_zysNGbxuHAjg5_Z-2">
          <mxGeometry x="79.99999999999955" y="290" width="40" height="40" as="geometry" />
        </mxCell>
        <mxCell id="lgjW_zysNGbxuHAjg5_Z-30" value="" style="ellipse;whiteSpace=wrap;html=1;" vertex="1" parent="lgjW_zysNGbxuHAjg5_Z-2">
          <mxGeometry x="79.99999999999955" y="390" width="40" height="40" as="geometry" />
        </mxCell>
        <mxCell id="lgjW_zysNGbxuHAjg5_Z-31" value="存款" style="whiteSpace=wrap;html=1;" vertex="1" parent="lgjW_zysNGbxuHAjg5_Z-2">
          <mxGeometry x="39.999999999999545" y="460" width="120" height="60" as="geometry" />
        </mxCell>
        <mxCell id="lgjW_zysNGbxuHAjg5_Z-29" value="" style="edgeStyle=orthogonalEdgeStyle;rounded=0;orthogonalLoop=1;jettySize=auto;html=1;" edge="1" parent="lgjW_zysNGbxuHAjg5_Z-2" source="lgjW_zysNGbxuHAjg5_Z-30" target="lgjW_zysNGbxuHAjg5_Z-31">
          <mxGeometry relative="1" as="geometry" />
        </mxCell>
        <mxCell id="lgjW_zysNGbxuHAjg5_Z-33" value="root + 用户addr" style="whiteSpace=wrap;html=1;" vertex="1" parent="lgjW_zysNGbxuHAjg5_Z-2">
          <mxGeometry x="39.999999999999545" y="560" width="120" height="60" as="geometry" />
        </mxCell>
        <mxCell id="lgjW_zysNGbxuHAjg5_Z-42" value="proof + 用户存款金额" style="whiteSpace=wrap;html=1;" vertex="1" parent="lgjW_zysNGbxuHAjg5_Z-2">
          <mxGeometry x="40" y="720" width="120" height="60" as="geometry" />
        </mxCell>
        <mxCell id="lgjW_zysNGbxuHAjg5_Z-49" value="" style="edgeStyle=orthogonalEdgeStyle;rounded=0;orthogonalLoop=1;jettySize=auto;html=1;" edge="1" parent="lgjW_zysNGbxuHAjg5_Z-2" source="lgjW_zysNGbxuHAjg5_Z-46" target="lgjW_zysNGbxuHAjg5_Z-48">
          <mxGeometry relative="1" as="geometry" />
        </mxCell>
        <mxCell id="lgjW_zysNGbxuHAjg5_Z-46" value="监听&amp;nbsp;Deposit 或 revert" style="whiteSpace=wrap;html=1;" vertex="1" parent="lgjW_zysNGbxuHAjg5_Z-2">
          <mxGeometry x="40" y="809" width="120" height="60" as="geometry" />
        </mxCell>
        <mxCell id="lgjW_zysNGbxuHAjg5_Z-48" value="" style="ellipse;whiteSpace=wrap;html=1;" vertex="1" parent="lgjW_zysNGbxuHAjg5_Z-2">
          <mxGeometry x="79.99999999999955" y="900" width="40" height="40" as="geometry" />
        </mxCell>
        <mxCell id="lgjW_zysNGbxuHAjg5_Z-50" value="" style="endArrow=none;dashed=1;html=1;rounded=0;" edge="1" parent="lgjW_zysNGbxuHAjg5_Z-2">
          <mxGeometry width="50" height="50" relative="1" as="geometry">
            <mxPoint y="950" as="sourcePoint" />
            <mxPoint x="600" y="950" as="targetPoint" />
          </mxGeometry>
        </mxCell>
        <mxCell id="lgjW_zysNGbxuHAjg5_Z-51" value="" style="ellipse;whiteSpace=wrap;html=1;" vertex="1" parent="lgjW_zysNGbxuHAjg5_Z-2">
          <mxGeometry x="79.99999999999955" y="979" width="40" height="40" as="geometry" />
        </mxCell>
        <mxCell id="lgjW_zysNGbxuHAjg5_Z-52" value="导入白名单列表&lt;br&gt;(后端管理接口，批量导入，覆盖形式)" style="whiteSpace=wrap;html=1;" vertex="1" parent="lgjW_zysNGbxuHAjg5_Z-2">
          <mxGeometry x="39.999999999999545" y="1049" width="120" height="60" as="geometry" />
        </mxCell>
        <mxCell id="lgjW_zysNGbxuHAjg5_Z-53" value="" style="edgeStyle=orthogonalEdgeStyle;rounded=0;orthogonalLoop=1;jettySize=auto;html=1;" edge="1" parent="lgjW_zysNGbxuHAjg5_Z-2" source="lgjW_zysNGbxuHAjg5_Z-51" target="lgjW_zysNGbxuHAjg5_Z-52">
          <mxGeometry relative="1" as="geometry" />
        </mxCell>
        <mxCell id="lgjW_zysNGbxuHAjg5_Z-58" value="获取root" style="whiteSpace=wrap;html=1;" vertex="1" parent="lgjW_zysNGbxuHAjg5_Z-2">
          <mxGeometry x="40" y="1150" width="120" height="60" as="geometry" />
        </mxCell>
        <mxCell id="lgjW_zysNGbxuHAjg5_Z-65" value="" style="edgeStyle=orthogonalEdgeStyle;rounded=0;orthogonalLoop=1;jettySize=auto;html=1;" edge="1" parent="lgjW_zysNGbxuHAjg5_Z-2" source="lgjW_zysNGbxuHAjg5_Z-62" target="lgjW_zysNGbxuHAjg5_Z-64">
          <mxGeometry relative="1" as="geometry" />
        </mxCell>
        <mxCell id="lgjW_zysNGbxuHAjg5_Z-62" value="判断" style="whiteSpace=wrap;html=1;" vertex="1" parent="lgjW_zysNGbxuHAjg5_Z-2">
          <mxGeometry x="40" y="1270" width="120" height="60" as="geometry" />
        </mxCell>
        <mxCell id="lgjW_zysNGbxuHAjg5_Z-64" value="" style="ellipse;whiteSpace=wrap;html=1;" vertex="1" parent="lgjW_zysNGbxuHAjg5_Z-2">
          <mxGeometry x="79.99999999999955" y="1360" width="40" height="40" as="geometry" />
        </mxCell>
        <mxCell id="lgjW_zysNGbxuHAjg5_Z-3" value="Backend" style="swimlane;startSize=20;html=1;" vertex="1" parent="lgjW_zysNGbxuHAjg5_Z-1">
          <mxGeometry x="200" y="20" width="200" height="1490" as="geometry" />
        </mxCell>
        <mxCell id="lgjW_zysNGbxuHAjg5_Z-9" value="查询白名单列表&lt;br&gt;whitelist/querylist" style="whiteSpace=wrap;html=1;" vertex="1" parent="lgjW_zysNGbxuHAjg5_Z-3">
          <mxGeometry x="40" y="100" width="120" height="60" as="geometry" />
        </mxCell>
        <mxCell id="lgjW_zysNGbxuHAjg5_Z-40" value="/whitelist/query" style="whiteSpace=wrap;html=1;" vertex="1" parent="lgjW_zysNGbxuHAjg5_Z-3">
          <mxGeometry x="39.999999999999545" y="640" width="120" height="60" as="geometry" />
        </mxCell>
        <mxCell id="lgjW_zysNGbxuHAjg5_Z-54" value="whitelist/import" style="whiteSpace=wrap;html=1;" vertex="1" parent="lgjW_zysNGbxuHAjg5_Z-3">
          <mxGeometry x="40" y="1049" width="120" height="60" as="geometry" />
        </mxCell>
        <mxCell id="lgjW_zysNGbxuHAjg5_Z-4" value="Contract" style="swimlane;startSize=20;html=1;" vertex="1" parent="lgjW_zysNGbxuHAjg5_Z-1">
          <mxGeometry x="400" y="20" width="200" height="1490" as="geometry" />
        </mxCell>
        <mxCell id="lgjW_zysNGbxuHAjg5_Z-37" value="getRoot" style="whiteSpace=wrap;html=1;" vertex="1" parent="lgjW_zysNGbxuHAjg5_Z-4">
          <mxGeometry x="50" y="460" width="120" height="60" as="geometry" />
        </mxCell>
        <mxCell id="lgjW_zysNGbxuHAjg5_Z-44" value="deposit" style="whiteSpace=wrap;html=1;" vertex="1" parent="lgjW_zysNGbxuHAjg5_Z-4">
          <mxGeometry x="30" y="769" width="120" height="60" as="geometry" />
        </mxCell>
        <mxCell id="lgjW_zysNGbxuHAjg5_Z-60" value="setRoot" style="whiteSpace=wrap;html=1;" vertex="1" parent="lgjW_zysNGbxuHAjg5_Z-4">
          <mxGeometry x="30" y="1220" width="120" height="60" as="geometry" />
        </mxCell>
        <mxCell id="lgjW_zysNGbxuHAjg5_Z-10" style="edgeStyle=orthogonalEdgeStyle;rounded=0;orthogonalLoop=1;jettySize=auto;html=1;" edge="1" parent="lgjW_zysNGbxuHAjg5_Z-1" source="lgjW_zysNGbxuHAjg5_Z-7" target="lgjW_zysNGbxuHAjg5_Z-9">
          <mxGeometry relative="1" as="geometry" />
        </mxCell>
        <mxCell id="lgjW_zysNGbxuHAjg5_Z-12" style="edgeStyle=orthogonalEdgeStyle;rounded=0;orthogonalLoop=1;jettySize=auto;html=1;entryX=1;entryY=0.5;entryDx=0;entryDy=0;" edge="1" parent="lgjW_zysNGbxuHAjg5_Z-1" source="lgjW_zysNGbxuHAjg5_Z-9" target="lgjW_zysNGbxuHAjg5_Z-11">
          <mxGeometry relative="1" as="geometry">
            <Array as="points">
              <mxPoint x="300" y="250" />
            </Array>
          </mxGeometry>
        </mxCell>
        <mxCell id="lgjW_zysNGbxuHAjg5_Z-38" style="edgeStyle=orthogonalEdgeStyle;rounded=0;orthogonalLoop=1;jettySize=auto;html=1;" edge="1" parent="lgjW_zysNGbxuHAjg5_Z-1" source="lgjW_zysNGbxuHAjg5_Z-31" target="lgjW_zysNGbxuHAjg5_Z-37">
          <mxGeometry relative="1" as="geometry" />
        </mxCell>
        <mxCell id="lgjW_zysNGbxuHAjg5_Z-39" style="edgeStyle=orthogonalEdgeStyle;rounded=0;orthogonalLoop=1;jettySize=auto;html=1;entryX=1;entryY=0.5;entryDx=0;entryDy=0;" edge="1" parent="lgjW_zysNGbxuHAjg5_Z-1" source="lgjW_zysNGbxuHAjg5_Z-37" target="lgjW_zysNGbxuHAjg5_Z-33">
          <mxGeometry relative="1" as="geometry">
            <Array as="points">
              <mxPoint x="510" y="610" />
            </Array>
          </mxGeometry>
        </mxCell>
        <mxCell id="lgjW_zysNGbxuHAjg5_Z-41" style="edgeStyle=orthogonalEdgeStyle;rounded=0;orthogonalLoop=1;jettySize=auto;html=1;entryX=0;entryY=0.5;entryDx=0;entryDy=0;" edge="1" parent="lgjW_zysNGbxuHAjg5_Z-1" source="lgjW_zysNGbxuHAjg5_Z-33" target="lgjW_zysNGbxuHAjg5_Z-40">
          <mxGeometry relative="1" as="geometry">
            <Array as="points">
              <mxPoint x="100" y="690" />
            </Array>
          </mxGeometry>
        </mxCell>
        <mxCell id="lgjW_zysNGbxuHAjg5_Z-43" style="edgeStyle=orthogonalEdgeStyle;rounded=0;orthogonalLoop=1;jettySize=auto;html=1;" edge="1" parent="lgjW_zysNGbxuHAjg5_Z-1" source="lgjW_zysNGbxuHAjg5_Z-40" target="lgjW_zysNGbxuHAjg5_Z-42">
          <mxGeometry relative="1" as="geometry">
            <Array as="points">
              <mxPoint x="300" y="770" />
            </Array>
          </mxGeometry>
        </mxCell>
        <mxCell id="lgjW_zysNGbxuHAjg5_Z-45" style="edgeStyle=orthogonalEdgeStyle;rounded=0;orthogonalLoop=1;jettySize=auto;html=1;" edge="1" parent="lgjW_zysNGbxuHAjg5_Z-1" source="lgjW_zysNGbxuHAjg5_Z-42" target="lgjW_zysNGbxuHAjg5_Z-44">
          <mxGeometry relative="1" as="geometry">
            <Array as="points">
              <mxPoint x="100" y="819" />
            </Array>
          </mxGeometry>
        </mxCell>
        <mxCell id="lgjW_zysNGbxuHAjg5_Z-47" style="edgeStyle=orthogonalEdgeStyle;rounded=0;orthogonalLoop=1;jettySize=auto;html=1;" edge="1" parent="lgjW_zysNGbxuHAjg5_Z-1" source="lgjW_zysNGbxuHAjg5_Z-44" target="lgjW_zysNGbxuHAjg5_Z-46">
          <mxGeometry relative="1" as="geometry">
            <Array as="points">
              <mxPoint x="490" y="859" />
            </Array>
          </mxGeometry>
        </mxCell>
        <mxCell id="lgjW_zysNGbxuHAjg5_Z-55" style="edgeStyle=orthogonalEdgeStyle;rounded=0;orthogonalLoop=1;jettySize=auto;html=1;" edge="1" parent="lgjW_zysNGbxuHAjg5_Z-1" source="lgjW_zysNGbxuHAjg5_Z-52" target="lgjW_zysNGbxuHAjg5_Z-54">
          <mxGeometry relative="1" as="geometry" />
        </mxCell>
        <mxCell id="lgjW_zysNGbxuHAjg5_Z-59" style="edgeStyle=orthogonalEdgeStyle;rounded=0;orthogonalLoop=1;jettySize=auto;html=1;" edge="1" parent="lgjW_zysNGbxuHAjg5_Z-1" source="lgjW_zysNGbxuHAjg5_Z-54" target="lgjW_zysNGbxuHAjg5_Z-58">
          <mxGeometry relative="1" as="geometry">
            <Array as="points">
              <mxPoint x="300" y="1200" />
            </Array>
          </mxGeometry>
        </mxCell>
        <mxCell id="lgjW_zysNGbxuHAjg5_Z-61" style="edgeStyle=orthogonalEdgeStyle;rounded=0;orthogonalLoop=1;jettySize=auto;html=1;" edge="1" parent="lgjW_zysNGbxuHAjg5_Z-1" source="lgjW_zysNGbxuHAjg5_Z-58" target="lgjW_zysNGbxuHAjg5_Z-60">
          <mxGeometry relative="1" as="geometry">
            <Array as="points">
              <mxPoint x="100" y="1270" />
            </Array>
          </mxGeometry>
        </mxCell>
        <mxCell id="lgjW_zysNGbxuHAjg5_Z-63" style="edgeStyle=orthogonalEdgeStyle;rounded=0;orthogonalLoop=1;jettySize=auto;html=1;" edge="1" parent="lgjW_zysNGbxuHAjg5_Z-1" source="lgjW_zysNGbxuHAjg5_Z-60" target="lgjW_zysNGbxuHAjg5_Z-62">
          <mxGeometry relative="1" as="geometry">
            <Array as="points">
              <mxPoint x="490" y="1320" />
            </Array>
          </mxGeometry>
        </mxCell>
        <mxCell id="lgjW_zysNGbxuHAjg5_Z-19" value="" style="endArrow=none;dashed=1;html=1;rounded=0;" edge="1" parent="1">
          <mxGeometry width="50" height="50" relative="1" as="geometry">
            <mxPoint x="830" y="430" as="sourcePoint" />
            <mxPoint x="1430" y="430" as="targetPoint" />
          </mxGeometry>
        </mxCell>
      </root>
    </mxGraphModel>
  </diagram>
</mxfile>
